<svg width="38" height="65" viewBox="0 0 38 65" fill="none" xmlns="http://www.w3.org/2000/svg">
<path d="M19.5469 61.1709C19.5469 62.8709 20.8469 64.1709 22.5469 64.1709C24.2469 64.1709 25.5469 62.8709 25.5469 61.1709V46.1709C23.6469 47.1709 21.6469 47.8709 19.5469 48.2709V61.1709Z" fill="black"/>
<path d="M10.2468 48.1709L5.44683 59.6709C4.84683 61.1709 5.54683 62.9709 7.04683 63.5709C8.54683 64.1709 10.3468 63.4709 10.9468 61.9709L16.5468 48.6709C14.4468 48.8709 12.3468 48.6709 10.2468 48.1709Z" fill="black"/>
<path d="M28.6468 13.7709C28.6468 13.8709 28.6468 13.8709 28.6468 13.7709C28.2468 15.7709 27.8468 17.6709 27.5468 19.3709C21.5468 13.5709 21.7468 13.0709 20.5468 12.9709C15.5468 11.1709 10.8468 11.8709 6.44682 14.9709C5.34682 15.4709 5.74682 15.6709 0.246818 25.9709C-0.153182 26.6709 -0.0531822 27.4709 0.446818 28.0709L5.24682 34.4709C5.94682 35.3709 7.14682 35.5709 8.04682 34.8709C8.94682 34.1709 9.14682 32.9709 8.44682 32.0709L4.44682 26.6709L7.04682 21.6709L7.74682 26.7709L7.64682 29.2709L9.24682 31.4709C10.2468 32.7709 9.94682 34.6709 8.64682 35.6709C8.24682 35.9709 7.74682 36.1709 7.24682 36.2709L6.64682 45.9709C14.3468 49.1709 22.4468 48.0709 28.9468 42.7709L22.6468 24.6709L21.9468 19.3709L27.3468 24.7709C28.2468 25.6709 29.6468 25.5709 30.4468 24.4709C30.7468 24.0709 30.8468 23.8709 32.6468 14.5709C32.7468 14.0709 32.6468 13.6709 32.4468 13.2709L28.6468 13.7709Z" fill="black"/>
<path d="M37.2468 10.6711C37.0468 9.07112 36.0468 7.87112 35.0468 8.07112C34.2468 8.17112 33.6468 8.97112 33.5468 10.0711L27.0468 10.8711C26.6468 9.87112 25.8468 9.17112 25.1468 9.27112C24.1468 9.37112 23.4468 10.7711 23.6468 12.3711C23.8468 13.9711 24.8468 15.1711 25.8468 14.9711C26.6468 14.8711 27.2468 14.0711 27.3468 12.9711L33.8468 12.1711C34.2468 13.1711 35.0468 13.8711 35.7468 13.7711C36.8468 13.6711 37.4468 12.2711 37.2468 10.6711Z" fill="black"/>
<path d="M13.1468 11.3709C16.2468 10.8709 18.4468 7.97094 18.0468 4.87094C17.5468 1.77094 14.6468 -0.429056 11.5468 0.0709439C8.44681 0.570944 6.24681 3.47094 6.64681 6.57094C7.04681 9.67094 10.0468 11.8709 13.1468 11.3709Z" fill="black"/>
</svg>
