<svg width="23" height="65" viewBox="0 0 23 65" fill="none" xmlns="http://www.w3.org/2000/svg">
<path d="M13.4218 32.7998C13.3218 35.3998 13.6218 36.3998 13.1218 38.0998L15.6218 36.0998L15.0218 43.2998C14.9218 44.8998 16.1218 46.3998 17.8218 46.4998C17.9218 46.4998 18.0218 46.4998 18.0218 46.4998C19.5218 46.4998 20.9218 45.2998 21.0218 43.6998L21.7218 35.0998C21.3218 35.2998 20.9218 35.3998 20.4218 35.3998C19.0218 35.4998 14.6218 33.4998 13.4218 32.7998Z" fill="black"/>
<path d="M22.0218 30.0001C22.0218 29.9001 22.4218 27.7001 20.4218 26.7001C18.2218 25.5001 16.7218 27.5001 16.4218 27.6001C19.4218 29.2001 21.4218 29.5001 22.0218 30.0001Z" fill="black"/>
<path d="M6.42183 11.6C9.62508 11.6 12.2218 9.00325 12.2218 5.8C12.2218 2.59675 9.62508 0 6.42183 0C3.21858 0 0.621826 2.59675 0.621826 5.8C0.621826 9.00325 3.21858 11.6 6.42183 11.6Z" fill="black"/>
<path d="M3.32177 18.8C3.52177 17.3 4.82177 16 6.62177 16.2C8.22177 16.4 9.42177 17.9 9.22177 19.5C9.22177 19.5 9.12177 22.1 12.4218 25V19C12.4218 15.7 9.72177 13 6.42177 13C3.12177 13 0.42177 15.7 0.42177 19V36C0.42177 36.9 0.621768 37.8 1.02177 38.6L1.42177 47.2L0.0217684 60.7C-0.178232 62.3 1.02177 63.8 2.72177 64C4.32177 64.2 5.82177 63 6.02177 61.3C7.62177 45.3 7.62177 48.7 7.22177 41.9C10.2218 41.5 12.4218 39 12.4218 36V32.3C7.42177 29.4 2.72177 24 3.32177 18.8Z" fill="black"/>
<path d="M21.0218 30.6002C7.92177 26.2002 8.22178 19.7002 8.22178 19.3002C8.32178 18.2002 7.52178 17.2002 6.42178 17.1002C5.32178 17.0002 4.32178 17.8002 4.22178 18.9002C4.22178 19.3002 3.22178 28.9002 19.6218 34.4002C22.2218 35.2002 23.5218 31.5002 21.0218 30.6002Z" fill="black"/>
</svg>
