<svg width="64" height="57" viewBox="0 0 64 57" fill="none" xmlns="http://www.w3.org/2000/svg">
<path d="M36.7709 12.2C40.0709 12.2 42.8709 9.5 42.8709 6.1C42.8709 2.8 40.1709 0 36.7709 0C33.4709 0 30.6709 2.7 30.6709 6.1C30.7709 9.5 33.4709 12.2 36.7709 12.2Z" fill="black"/>
<path d="M29.7709 19.8999C28.5709 18.7999 28.3709 16.8999 29.4709 15.5999C30.5709 14.2999 32.4709 14.1999 33.7709 15.2999C34.9709 16.3999 35.9709 17.4999 36.8709 18.6999C37.3709 15.9999 35.8709 13.1999 33.1709 12.1999C30.0709 10.8999 26.5709 12.3999 25.3709 15.4999L18.6709 31.7999C18.3709 32.6999 18.1709 33.4999 18.2709 34.3999L9.47089 34.8999C8.37089 34.9999 7.37089 35.6999 6.87089 36.6999L0.270888 52.0999C-0.429112 53.5999 0.270888 55.3999 1.87089 56.0999C3.37089 56.7999 5.17089 56.0999 5.87089 54.4999L11.7709 40.8999L24.3709 40.1999C24.3709 40.1999 24.3709 40.1999 24.4709 40.1999C26.8709 40.1999 29.0709 38.7999 30.0709 36.4999L34.4709 25.7999C33.0709 23.5999 31.6709 21.5999 29.7709 19.8999Z" fill="black"/>
<path d="M63.9709 55C55.9709 41 59.8709 15.3 59.9709 15L56.9709 14.5C56.8709 15.2 55.2709 25.4 56.1709 36.7H43.6709C43.2709 37.2 42.7709 37.7 42.1709 37.9C40.7709 38.3 39.4709 37.8 38.7709 36.7H38.5709V55.7H41.5709V39.7H56.4709C57.1709 45.6 58.5709 51.6 61.3709 56.5L63.9709 55Z" fill="black"/>
<path d="M33.1709 16.2001C32.3709 15.5001 31.0709 15.5001 30.3709 16.4001C29.6709 17.2001 29.6709 18.5001 30.5709 19.2001C35.2709 23.4001 37.3709 29.6001 39.3709 35.7001C39.7709 36.8001 40.8709 37.3001 41.8709 37.0001C42.9709 36.6001 43.4709 35.5001 43.1709 34.5001C40.7709 27.5001 38.5709 21.0001 33.1709 16.2001Z" fill="black"/>
</svg>
